<svg width="19" height="14" viewBox="0 0 19 14" fill="none" xmlns="http://www.w3.org/2000/svg">
<path d="M4.08484 0.25H0.709839V3.625C2.5738 3.625 4.08484 2.11396 4.08484 0.25Z" fill="#F0F1F5"/>
<path fill-rule="evenodd" clip-rule="evenodd" d="M6.33484 0.25C6.33484 3.3566 3.81644 5.875 0.709839 5.875V8.125C3.81644 8.125 6.33484 10.6434 6.33484 13.75H13.0848C13.0848 10.6434 15.6032 8.125 18.7098 8.125V5.875C15.6032 5.875 13.0848 3.3566 13.0848 0.25H6.33484ZM9.70984 9.25C10.9525 9.25 11.9598 8.24264 11.9598 7C11.9598 5.75736 10.9525 4.75 9.70984 4.75C8.4672 4.75 7.45984 5.75736 7.45984 7C7.45984 8.24264 8.4672 9.25 9.70984 9.25Z" fill="#F0F1F5"/>
<path d="M18.7098 0.25V3.625C16.8459 3.625 15.3348 2.11396 15.3348 0.25H18.7098Z" fill="#F0F1F5"/>
<path d="M18.7098 13.75H15.3348C15.3348 11.886 16.8459 10.375 18.7098 10.375V13.75Z" fill="#F0F1F5"/>
<path d="M4.08484 13.75C4.08484 11.886 2.5738 10.375 0.709839 10.375V13.75H4.08484Z" fill="#F0F1F5"/>
</svg>
