<svg width="22" height="22" viewBox="0 0 22 22" fill="none" xmlns="http://www.w3.org/2000/svg">
<path d="M5.81003 6.6935H2.7431V19.5182H5.81003V6.6935Z" fill="#FF806F"/>
<path d="M12.5365 6.70572H9.47571V19.5304H12.5365V6.70572Z" fill="#FF806F"/>
<path d="M19.2508 6.64462H16.1899V19.4693H19.2508V6.64462Z" fill="#FF806F"/>
<path d="M12.8298 0L22 4.92081L21.9939 7.36593L0 7.37205V4.93915L9.16412 0H12.8298Z" fill="#FFAB9F"/>
<path d="M10.997 5.87441C12.1509 5.87441 13.0864 4.93843 13.0864 3.78383C13.0864 2.62924 12.1509 1.69325 10.997 1.69325C9.843 1.69325 8.90753 2.62924 8.90753 3.78383C8.90753 4.93843 9.843 5.87441 10.997 5.87441Z" fill="#FF0000"/>
<path d="M21.9939 18.9253H0V22H21.9939V18.9253Z" fill="#FFAB9F"/>
</svg>
