<svg width="21" height="19" viewBox="0 0 21 19" fill="none" xmlns="http://www.w3.org/2000/svg">
<path d="M1.67292 14.2931L0.674225 15.0248L2.18508 17.0624C2.36632 17.3065 2.57914 17.5255 2.81795 17.7136C2.90209 17.7794 2.99355 17.8416 3.085 17.9002C3.5508 18.1892 4.0652 18.3912 4.60317 18.4964C4.80601 18.5392 5.01125 18.5698 5.21776 18.5879C5.43885 18.6128 5.66108 18.6262 5.88356 18.6281C6.18397 18.6318 6.48436 18.6196 6.78348 18.5916C7.10907 18.5623 7.44197 18.5147 7.77852 18.4525C8.03094 18.405 8.28336 18.3501 8.5431 18.2843C12.3074 17.3404 16.3864 14.5382 18.8484 11.2239C19.0166 10.9971 19.1739 10.7702 19.3239 10.5398C19.5434 10.2105 19.741 9.87764 19.9239 9.54108C20.0702 9.26671 20.2056 8.996 20.3226 8.72895C20.4397 8.4619 20.5128 8.27167 20.5933 8.05218C20.6738 7.83268 20.736 7.61319 20.7909 7.39735C20.9494 6.81864 21.0185 6.21906 20.9957 5.61945C20.9957 5.49873 20.9957 5.38166 20.9665 5.25363C20.9122 4.78259 20.7668 4.32661 20.5385 3.91105C20.4699 3.7833 20.3916 3.661 20.3043 3.54523L18.8776 1.64294L17.9631 2.3124C17.8314 2.28679 17.696 2.26484 17.557 2.25021C16.988 2.18736 16.4139 2.18736 15.8449 2.25021C15.4766 2.28341 15.1103 2.33592 14.7475 2.40752C14.253 2.50081 13.7644 2.62296 13.2842 2.77334C9.79004 3.96226 6.68966 6.08823 4.32149 8.91918C3.98387 9.32561 3.66761 9.74932 3.37401 10.1886C3.13256 10.5544 2.91307 10.9202 2.71186 11.2861C2.42267 11.811 2.17793 12.3592 1.98022 12.9249C1.8345 13.3702 1.7316 13.8283 1.67292 14.2931Z" fill="#EAB948"/>
<path opacity="0.15" d="M17.2172 13.1115L14.1553 8.95941L12.7578 10.2398L15.8234 14.3809C16.3112 13.981 16.7758 13.5578 17.2172 13.1115Z" fill="white"/>
<path opacity="0.05" d="M2.18523 17.0625C2.36648 17.3066 2.57929 17.5256 2.81811 17.7137C2.90225 17.7796 2.9937 17.8418 3.08516 17.9003C3.55096 18.1893 4.06536 18.3913 4.60333 18.4966L4.82648 18.5368L1.67674 14.2786L0.67804 15.0103L2.18523 17.0625Z" fill="black"/>
<path opacity="0.15" d="M5.82536 11.4216L4.9108 11.813L9.5092 18.0064C9.81649 17.904 10.1238 17.7906 10.4347 17.6662L5.82536 11.4216Z" fill="white"/>
<path opacity="0.15" d="M12.7319 16.554L8.75544 11.1801L7.32507 12.4129L11.0272 17.4174C11.6016 17.1613 12.1722 16.8723 12.7319 16.554Z" fill="white"/>
<path opacity="0.15" d="M18.8779 1.64294L17.9633 2.3124C17.8316 2.2868 17.6962 2.26484 17.5572 2.25021C16.9883 2.18736 16.4141 2.18736 15.8452 2.25021C15.4768 2.28341 15.1105 2.33592 14.7477 2.40752C14.2532 2.50081 13.7646 2.62296 13.2844 2.77334C12.8271 2.91601 12.3662 3.08795 11.9089 3.28184L18.3145 11.886C18.4974 11.6629 18.6803 11.4397 18.8413 11.2129C19.0022 10.9861 19.1669 10.7593 19.3168 10.5288C19.5363 10.1996 19.7339 9.86667 19.9168 9.53011C20.0631 9.25574 20.1985 8.98503 20.3155 8.71798C20.4326 8.45093 20.5058 8.2607 20.5862 8.0412C20.6667 7.82171 20.7289 7.60222 20.7838 7.38638C20.9424 6.80766 21.0114 6.20809 20.9887 5.60848C20.9887 5.48775 20.9887 5.37069 20.9594 5.24265C20.9051 4.77162 20.7597 4.31563 20.5314 3.90008C20.4628 3.77232 20.3845 3.65002 20.2972 3.53425L18.8779 1.64294Z" fill="white"/>
<path opacity="0.15" d="M20.9921 5.61945C20.9921 5.49873 20.9921 5.38166 20.9628 5.25363C20.9085 4.78259 20.7632 4.32661 20.5348 3.91105C20.4663 3.7833 20.388 3.661 20.3007 3.54523L18.8776 1.64294L17.9631 2.3124H17.9411L17.718 2.65262L20.8897 6.94007C20.9783 6.5058 21.0127 6.0622 20.9921 5.61945Z" fill="white"/>
<path d="M0.378083 10.7446C0.177223 11.3195 0.0541897 11.9187 0.012259 12.5262C-0.0460986 13.2698 0.104693 14.0149 0.44759 14.6772C0.665688 15.0803 0.966058 15.433 1.32923 15.7125C1.41215 15.7784 1.49994 15.8406 1.59262 15.8991C2.06065 16.1889 2.57759 16.391 3.1181 16.4954C3.32104 16.5376 3.52624 16.5682 3.73269 16.5868C3.95378 16.6117 4.17601 16.6252 4.39849 16.6271C4.6989 16.6308 4.9993 16.6186 5.29841 16.5905C5.62766 16.5612 5.9569 16.5137 6.29346 16.4515C6.54587 16.4039 6.80195 16.3491 7.05803 16.2832C10.8224 15.3394 14.9013 12.5372 17.356 9.22281C17.5243 8.996 17.6816 8.76918 17.8352 8.53872C18.051 8.20947 18.2522 7.87657 18.4315 7.54002C18.5815 7.26565 18.7132 6.99494 18.8302 6.72789C18.9473 6.46084 19.0205 6.27061 19.101 6.05111C19.1814 5.83162 19.2436 5.61212 19.3022 5.39629C19.4618 4.81773 19.5321 4.21818 19.5107 3.61839C19.5107 3.49766 19.5107 3.3806 19.4814 3.25256C19.426 2.78128 19.2793 2.32528 19.0497 1.90999C18.7012 1.29331 18.1675 0.801872 17.5242 0.505225C17.0252 0.267517 16.4897 0.115409 15.9402 0.0552619C15.3718 -0.0116941 14.7979 -0.0178256 14.2282 0.036971C13.8599 0.0701684 13.4935 0.122675 13.1307 0.194275C12.6424 0.288261 12.1599 0.410406 11.6857 0.560099C8.18183 1.75461 5.07543 3.89264 2.70838 6.73886C2.37076 7.14529 2.05451 7.569 1.7609 8.00827C1.51945 8.37409 1.2963 8.73992 1.09876 9.10574C0.811309 9.63003 0.57017 10.1784 0.378083 10.7446Z" fill="#F5DEA8"/>
<path opacity="0.15" d="M16.8291 9.89958C17.012 9.67643 17.1949 9.44962 17.3595 9.22281C17.5241 8.996 17.6851 8.76919 17.8387 8.53872C18.0546 8.20948 18.2558 7.87658 18.435 7.54002C18.585 7.26565 18.7167 6.99494 18.8338 6.72789C18.9509 6.46084 19.024 6.27061 19.1045 6.05112C19.185 5.83162 19.2472 5.61213 19.3057 5.39629C19.4653 4.81773 19.5357 4.21818 19.5142 3.61839C19.5142 3.49767 19.5142 3.3806 19.485 3.25256C19.4295 2.78128 19.2829 2.32528 19.0533 1.90999C18.7047 1.29331 18.1711 0.801872 17.5278 0.505225C17.0287 0.267517 16.4933 0.115409 15.9438 0.0552619C15.3754 -0.0116941 14.8014 -0.0178256 14.2317 0.036971C13.9098 0.0662369 13.5842 0.113794 13.2586 0.172325L16.8291 9.89958Z" fill="white"/>
<path opacity="0.15" d="M19.4118 4.93559C19.4967 4.5082 19.531 4.07233 19.5143 3.63692C19.5143 3.5162 19.5143 3.39913 19.485 3.27109C19.4296 2.79981 19.2829 2.34381 19.0533 1.92852C18.7707 1.42526 18.3607 1.00515 17.8644 0.710327L19.4118 4.93559Z" fill="white"/>
<path opacity="0.15" d="M14.3451 12.3943C14.8329 11.9846 15.2963 11.5566 15.7353 11.1103L11.8466 0.545288L11.6893 0.592845C11.1863 0.753021 10.6918 0.938611 10.2077 1.1489L14.3451 12.3943Z" fill="white"/>
<path opacity="0.15" d="M9.54927 15.4163C10.12 15.1603 10.6906 14.8713 11.2504 14.553L6.97021 2.90881C6.42514 3.27464 5.89469 3.67339 5.38254 4.09042L9.54927 15.4163Z" fill="white"/>
<path opacity="0.15" d="M8.02377 16.0052C8.33594 15.9028 8.64689 15.7894 8.95662 15.665L4.86306 4.53296C4.59235 4.76709 4.32895 5.01219 4.07288 5.26461L8.02377 16.0052Z" fill="white"/>
<path opacity="0.3" d="M0.817072 9.66168C0.748785 9.81045 0.682936 9.96044 0.619527 10.1116C0.597577 10.1592 0.575628 10.2104 0.557337 10.258C0.539046 10.3055 0.517097 10.3604 0.498805 10.4116C0.454907 10.5214 0.414665 10.6348 0.378083 10.7445C0.177223 11.3194 0.0541897 11.9186 0.012259 12.5261C-0.0460986 13.2697 0.104693 14.0147 0.44759 14.6771C0.665688 15.0802 0.966058 15.4329 1.32923 15.7124C1.41215 15.7783 1.49994 15.8404 1.59262 15.899C2.06065 16.1888 2.57759 16.3909 3.1181 16.4953L3.34126 16.5355L0.817072 9.66168Z" fill="#EAB948"/>
<path d="M3.32311 8.87529C5.10102 5.60849 9.20922 2.71116 12.6809 2.20633L13.1235 2.15511C16.683 1.85148 18.0658 4.35005 16.2111 7.76685C14.3564 11.1836 9.97379 14.1797 6.41067 14.487L5.98631 14.509C2.75243 14.5858 1.54521 12.1421 3.32311 8.87529Z" fill="#EAB948"/>
<path d="M3.60848 8.84986C3.66701 8.74743 3.72554 8.64134 3.79139 8.53525C5.57296 5.54647 9.3446 2.94546 12.5712 2.48087H12.659L12.9919 2.44429C13.5864 2.38098 14.1874 2.4256 14.7661 2.57598C15.305 2.69894 15.7878 2.99738 16.1387 3.42445C16.4897 3.85152 16.6888 4.38303 16.705 4.93555C16.7259 5.75575 16.545 6.56853 16.1782 7.30243C16.1014 7.46705 16.0172 7.63533 15.9258 7.80361C15.8343 7.97188 15.7502 8.11456 15.6551 8.2682C15.4503 8.59807 15.228 8.91679 14.9893 9.223C13.2184 11.4375 10.8259 13.072 8.11909 13.9165C7.77098 14.0177 7.41658 14.096 7.0582 14.1506C6.88992 14.1763 6.7253 14.1982 6.56434 14.2092C6.40337 14.2202 6.28997 14.2311 6.15827 14.2348H6.04487C5.29563 14.2685 4.55327 14.0788 3.91211 13.6897C3.00487 13.0861 2.63539 12.0179 2.90976 10.6753C3.05113 10.0356 3.2866 9.42045 3.60848 8.84986Z" fill="#EAB948"/>
<path opacity="0.13" d="M3.60848 8.84986C3.66701 8.74743 3.72554 8.64134 3.79139 8.53525C5.57296 5.54647 9.3446 2.94546 12.5712 2.48087H12.659L12.9919 2.44429C13.5864 2.38098 14.1874 2.4256 14.7661 2.57598C15.305 2.69894 15.7878 2.99738 16.1387 3.42445C16.4897 3.85152 16.6888 4.38303 16.705 4.93555C16.7259 5.75575 16.545 6.56853 16.1782 7.30243C16.1014 7.46705 16.0172 7.63533 15.9258 7.80361C15.8343 7.97188 15.7502 8.11456 15.6551 8.2682C15.4503 8.59807 15.228 8.91679 14.9893 9.223C13.2184 11.4375 10.8259 13.072 8.11909 13.9165C7.77098 14.0177 7.41658 14.096 7.0582 14.1506C6.88992 14.1763 6.7253 14.1982 6.56434 14.2092C6.40337 14.2202 6.28997 14.2311 6.15827 14.2348H6.04487C5.29563 14.2685 4.55327 14.0788 3.91211 13.6897C3.00487 13.0861 2.63539 12.0179 2.90976 10.6753C3.05113 10.0356 3.2866 9.42045 3.60848 8.84986Z" fill="black"/>
<path d="M4.3509 9.29609C4.28506 9.40218 4.22652 9.50827 4.16799 9.6107C3.84705 10.1826 3.6128 10.7991 3.47293 11.4398C3.30718 12.116 3.36231 12.8275 3.63023 13.4701C3.71885 13.5525 3.8143 13.6271 3.91557 13.6933C4.55608 14.0804 5.29704 14.2688 6.04467 14.2347H6.15442C6.28611 14.2347 6.42147 14.2347 6.56048 14.2091C6.69949 14.1835 6.88606 14.1762 7.05434 14.1506C7.41272 14.0959 7.76712 14.0177 8.11523 13.9164C10.8252 13.0686 13.2193 11.4288 14.9891 9.20829C15.2278 8.90208 15.4501 8.58336 15.6549 8.25349C15.75 8.09985 15.8414 7.9462 15.9256 7.7889C16.0097 7.63159 16.1012 7.45234 16.178 7.28772C16.5425 6.55822 16.7233 5.75075 16.7048 4.93547C16.6878 4.59546 16.6071 4.26167 16.467 3.9514C16.1332 3.65955 15.7362 3.44917 15.3073 3.33682C14.7284 3.18823 14.1276 3.14364 13.5331 3.20512C13.4233 3.20512 13.3099 3.22707 13.2002 3.24536H13.1124C9.90411 3.7063 6.13247 6.30731 4.3509 9.29609Z" fill="#EAB948"/>
<path d="M1.60376 15.9102C4.32183 17.4321 7.87032 16.2139 10.5189 14.8896C14.4588 12.7605 18.0183 9.45711 19.2694 5.37817C19.5767 4.23314 19.6352 2.97105 19.0572 1.91382C19.6608 2.96739 19.6462 4.24412 19.3462 5.40378C18.4024 8.7657 15.7465 11.5972 12.7614 13.6933C9.65554 15.7164 5.12664 17.8418 1.60376 15.9102Z" fill="#FBF1DA"/>
</svg>
