<svg width="23" height="22" viewBox="0 0 23 22" fill="none" xmlns="http://www.w3.org/2000/svg">
<path d="M19.7868 1.97263H17.6381V7.84296H19.7868V1.97263Z" fill="#707480"/>
<path d="M22.4817 9.779H21.2533L11.7603 1.20267L1.69167 9.75333L1.67333 9.779H0.5L11.8337 0L22.4817 9.779Z" fill="#707480"/>
<path d="M21.2788 9.77902H19.4565V21.989H3.57982V9.77902H1.69882L1.71716 9.75335L11.7602 1.20268L21.2788 9.77902Z" fill="#DEDDE1"/>
<path d="M14.569 11.6417H8.41269V22H14.569V11.6417Z" fill="#CFCDCE"/>
<path d="M3.59449 9.77898H1.69882V10.4316H3.59449V9.77898Z" fill="#DEDDE1"/>
<path d="M21.3157 10.4317H22.5V9.77899H21.3157V10.4317Z" fill="#707480"/>
<path d="M19.4345 10.4317H21.3302V9.77899H19.4345V10.4317Z" fill="#DEDDE1"/>
<path d="M8.41259 21.065H3.35992V22H8.41259V21.065Z" fill="#707480"/>
<path d="M19.5923 21.065H14.5397V22H19.5923V21.065Z" fill="#707480"/>
</svg>
