<svg width="11" height="12" viewBox="0 0 11 12" fill="none" xmlns="http://www.w3.org/2000/svg">
<path d="M2.80983 7.39998C1.65003 7.39998 0.709827 8.34018 0.709827 9.49998C0.709827 10.6598 1.65003 11.6 2.80983 11.6C3.96963 11.6 4.90983 10.6598 4.90983 9.49998C4.90983 9.34338 4.89269 9.19079 4.86018 9.04398L7.1018 7.64296C7.46063 7.92901 7.91526 8.09998 8.40983 8.09998C9.56962 8.09998 10.5098 7.15977 10.5098 5.99998C10.5098 4.84018 9.56962 3.89998 8.40983 3.89998C7.91526 3.89998 7.46063 4.07094 7.1018 4.35699L4.86018 2.95598C4.89269 2.80916 4.90983 2.65657 4.90983 2.49998C4.90983 1.34018 3.96963 0.399976 2.80983 0.399976C1.65003 0.399976 0.709827 1.34018 0.709827 2.49998C0.709827 3.65977 1.65003 4.59998 2.80983 4.59998C3.30439 4.59998 3.75902 4.42901 4.11785 4.14296L6.35947 5.54398C6.32697 5.69079 6.30983 5.84338 6.30983 5.99998C6.30983 6.15657 6.32697 6.30916 6.35947 6.45597L4.11785 7.85699C3.75902 7.57094 3.30439 7.39998 2.80983 7.39998Z" fill="#F0F1F5"/>
</svg>
