<svg width="32" height="32" viewBox="0 0 32 32" fill="none" xmlns="http://www.w3.org/2000/svg">
<path d="M4.20001 14.5733L9.18667 17.6667L7.74667 21.3333L4.21334 21.5867C4.21334 21.5867 4.16001 21.3333 4.14667 21.2533C3.52001 18.6933 3.38667 15.1333 4.28001 12.44C6.82667 4.72 14.8267 2.01333 21.0667 4.8C27.3067 7.58666 29.9467 14.08 27.9733 21.44C27.9733 21.48 27.9333 21.6 27.9333 21.6L24.4933 21.3467L23.0533 17.68L28.1467 15.3067" stroke="white" stroke-miterlimit="10"/>
<path d="M26.4933 21.5601C24.6533 25.2267 21.0267 27.5067 17.1333 27.7467C17 27.7467 15.3333 27.7067 15.3333 27.7067" stroke="white" stroke-miterlimit="10"/>
<path d="M17.1467 25.8267H11.84V29.3067H17.1467V25.8267Z" fill="white"/>
</svg>
